<svg width="24" height="24" viewBox="0 0 24 24" fill="none" xmlns="http://www.w3.org/2000/svg">
<path d="M24 4H0V20.0002H24V4Z" fill="#D80027"/>
<path d="M8.38709 8.88599L9.07409 11.0004H11.2973L9.49868 12.3072L10.1857 14.4216L8.38709 13.1148L6.58845 14.4216L7.27545 12.3072L5.47681 11.0004H7.70004L8.38709 8.88599Z" fill="#FFDA44"/>
<path d="M12.7173 15.9184L12.0428 15.4284L11.3683 15.9184L11.6259 15.1255L10.9514 14.6355H11.7851L12.0428 13.8425L12.3005 14.6355H13.1341L12.4597 15.1255L12.7173 15.9184Z" fill="#FFDA44"/>
<path d="M14.4768 13.4966H13.6431L13.3855 14.2894L13.1278 13.4966L12.2941 13.4966L12.9686 13.0065L12.7109 12.2136L13.3855 12.7036L14.0599 12.2136L13.8023 13.0065L14.4768 13.4966Z" fill="#FFDA44"/>
<path d="M14.4768 10.5029L13.8023 10.993L14.0599 11.7858L13.3855 11.2958L12.7109 11.7859L12.9686 10.9929L12.2941 10.503L13.1279 10.5029L13.3855 9.70996L13.6431 10.5029H14.4768Z" fill="#FFDA44"/>
<path d="M12.7172 8.0811L12.4597 8.87404L13.1341 9.36402L12.3004 9.36407L12.0427 10.1571L11.7851 9.36402L10.9514 9.36412L11.6259 8.87399L11.3683 8.08105L12.0427 8.57113L12.7172 8.0811Z" fill="#FFDA44"/>
</svg>
