<svg width="25" height="19" viewBox="0 0 25 19" fill="none" xmlns="http://www.w3.org/2000/svg">
<path d="M25.0001 15.2778C25.0001 16.0145 24.7074 16.721 24.1865 17.242C23.6656 17.7629 22.959 18.0556 22.2223 18.0556H16.6667V0H22.2223C22.959 0 23.6656 0.292658 24.1865 0.813592C24.7074 1.33453 25.0001 2.04106 25.0001 2.77778V15.2778Z" fill="#ED2939"/>
<path d="M2.77778 0C2.04107 0 1.33453 0.292658 0.813592 0.813592C0.292658 1.33453 0 2.04106 0 2.77778L0 15.2778C0 16.0145 0.292658 16.721 0.813592 17.242C1.33453 17.7629 2.04107 18.0556 2.77778 18.0556H8.33333V0H2.77778Z" fill="#002495"/>
<path d="M8.33325 0H16.6666V18.0556H8.33325V0Z" fill="#EEEEEE"/>
</svg>
