<svg width="15" height="17" viewBox="0 0 15 17" fill="none" xmlns="http://www.w3.org/2000/svg">
<path d="M1.66667 17H13.3333C14.2525 17 15 16.2376 15 15.3V7.65009C15.0001 7.53846 14.9786 7.4279 14.9367 7.32477C14.8948 7.22165 14.8333 7.12798 14.7558 7.04915L8.08917 0.249218C8.01184 0.170215 7.92001 0.107539 7.81891 0.0647751C7.71781 0.0220114 7.60944 0 7.5 0C7.39056 0 7.28218 0.0220114 7.18109 0.0647751C7.07999 0.107539 6.98816 0.170215 6.91083 0.249218L0.244167 7.04915C0.166669 7.12798 0.105203 7.22165 0.0633014 7.32477C0.0213996 7.4279 -0.000112617 7.53846 4.43347e-07 7.65009V15.3C4.43347e-07 16.2376 0.7475 17 1.66667 17ZM5.83333 15.3V11.0501H9.16667V15.3H5.83333ZM1.66667 8.00199L7.5 2.05205L13.3333 8.00199L13.3342 15.3H10.8333V11.0501C10.8333 10.1125 10.0858 9.35008 9.16667 9.35008H5.83333C4.91417 9.35008 4.16667 10.1125 4.16667 11.0501V15.3H1.66667V8.00199Z" fill="#8F8F8F"/>
</svg>
