<svg width="98" height="98" viewBox="0 0 98 98" fill="none" xmlns="http://www.w3.org/2000/svg">
<path d="M49 6.125C25.323 6.125 6.125 25.323 6.125 49C6.125 72.677 25.323 91.875 49 91.875C72.677 91.875 91.875 72.677 91.875 49C91.875 25.323 72.677 6.125 49 6.125ZM62.7908 49.6604L41.8893 64.8676C41.7747 64.9499 41.6396 64.9991 41.4989 65.0097C41.3582 65.0202 41.2173 64.9918 41.0917 64.9275C40.9661 64.8632 40.8606 64.7656 40.7869 64.6452C40.7132 64.5249 40.6741 64.3866 40.6738 64.2455V33.8502C40.6734 33.7088 40.7121 33.5701 40.7856 33.4493C40.8592 33.3286 40.9648 33.2306 41.0906 33.1661C41.2165 33.1017 41.3577 33.0734 41.4987 33.0844C41.6397 33.0953 41.7748 33.1451 41.8893 33.2281L62.7908 48.4258C62.8896 48.4956 62.9701 48.5881 63.0257 48.6955C63.0813 48.8029 63.1103 48.9221 63.1103 49.0431C63.1103 49.164 63.0813 49.2832 63.0257 49.3906C62.9701 49.498 62.8896 49.5905 62.7908 49.6604Z" fill="white"/>
</svg>
